name C:\Users\u0101727\Documents\MyRepositories\upper-imu-dc\Results\main_tracking\Case_95\kinematics.mot
datacolumns 43
datarows 6
range 5.26000000 5.36000000
endheader 
time	clav_prot	clav_elev	scapula_abduction	scapula_elevation	scapula_upward_rot	scapula_winging	plane_elv	shoulder_elv	axial_rot	TrapeziusScapula_M/activation	TrapeziusScapula_S/activation	TrapeziusScapula_I/activation	TrapeziusClavicle_S/activation	SerratusAnterior_I/activation	SerratusAnterior_M/activation	SerratusAnterior_S/activation	Rhomboideus_S/activation	Rhomboideus_I/activation	LevatorScapulae/activation	Coracobrachialis/activation	DeltoideusClavicle_A/activation	DeltoideusScapula_P/activation	DeltoideusScapula_M/activation	LatissimusDorsi_S/activation	LatissimusDorsi_M/activation	LatissimusDorsi_I/activation	PectoralisMajorClavicle_S/activation	PectoralisMajorThorax_I/activation	PectoralisMajorThorax_M/activation	TeresMajor/activation	Infraspinatus_I/activation	Infraspinatus_S/activation	PectoralisMinor/activation	TeresMinor/activation	Subscapularis_S/activation	Subscapularis_M/activation	Subscapularis_I/activation	Supraspinatus_P/activation	Supraspinatus_A/activation	TRIlong/activation	BIC_long/activation	BIC_brevis/activation	
          5.26000000	        -45.74872249	          4.20134520	        -28.21779480	         -5.70514018	         47.27405294	        -11.95866361	         27.21840405	         78.56974222	         -2.22286390	          0.01006030	          0.07402359	          0.01000250	          0.02335643	          0.05792023	          0.08485018	          0.01000370	          0.01002205	          0.01000330	          0.01006107	          0.06175100	          0.11302882	          0.01000000	          0.09452398	          0.01000066	          0.01000018	          0.01000015	          0.03349525	          0.01000080	          0.01447521	          0.01000000	          0.02866509	          0.01026411	          0.01000103	          0.01000230	          0.01201056	          0.01000290	          0.01000128	          0.03661075	          0.06425793	          0.01000000	          0.05164568	          0.05653127	
          5.28000000	        -45.99127130	          4.30481887	        -28.33665480	         -5.68053842	         47.62377174	        -12.19401175	         27.76569661	         78.77616270	         -2.68386882	          0.01005988	          0.07364267	          0.01000277	          0.02317377	          0.05829227	          0.08480139	          0.01000332	          0.01001705	          0.01000310	          0.01004716	          0.06189292	          0.11293674	          0.01000000	          0.09454136	          0.01000065	          0.01000017	          0.01000016	          0.03341327	          0.01000084	          0.01439578	          0.01000000	          0.02954640	          0.01018588	          0.01000107	          0.01000245	          0.01153696	          0.01000284	          0.01000127	          0.03632615	          0.06346517	          0.01000000	          0.05072464	          0.05686232	
          5.30000000	        -46.22505655	          4.40001246	        -28.44775101	         -5.65938626	         47.96274886	        -12.41977211	         28.29574016	         78.98887561	         -3.16108560	          0.01005523	          0.07348393	          0.01000289	          0.02297112	          0.05901131	          0.08477346	          0.01000331	          0.01001536	          0.01000301	          0.01004300	          0.06204219	          0.11304492	          0.01000000	          0.09489651	          0.01000065	          0.01000017	          0.01000015	          0.03330969	          0.01000082	          0.01417146	          0.01000000	          0.03041227	          0.01012094	          0.01000107	          0.01000258	          0.01107690	          0.01000275	          0.01000125	          0.03609101	          0.06275647	          0.01000000	          0.04987204	          0.05722029	
          5.32000000	        -46.45169681	          4.48648634	        -28.55166176	         -5.64233286	         48.29325707	        -12.63696892	         28.80977905	         79.20808459	         -3.64722777	          0.01005216	          0.07343512	          0.01000319	          0.02278295	          0.05984107	          0.08487287	          0.01000319	          0.01001310	          0.01000288	          0.01003699	          0.06225935	          0.11328369	          0.01000000	          0.09537430	          0.01000064	          0.01000017	          0.01000015	          0.03323959	          0.01000082	          0.01397226	          0.01000000	          0.03119013	          0.01009375	          0.01000108	          0.01000272	          0.01064991	          0.01000263	          0.01000123	          0.03593323	          0.06217604	          0.01000000	          0.04914447	          0.05766253	
          5.34000000	        -46.67248880	          4.56451301	        -28.64870949	         -5.62949530	         48.61755802	        -12.84672279	         29.30899977	         79.43447458	         -4.13389347	          0.01005026	          0.07341459	          0.01000356	          0.02266279	          0.06063126	          0.08513356	          0.01000317	          0.01001084	          0.01000277	          0.01003025	          0.06259635	          0.11365726	          0.01000000	          0.09586807	          0.01000062	          0.01000016	          0.01000014	          0.03325224	          0.01000081	          0.01384957	          0.01000000	          0.03187642	          0.01008687	          0.01000108	          0.01000284	          0.01031439	          0.01000250	          0.01000120	          0.03578243	          0.06167144	          0.01000000	          0.04841948	          0.05818833	
          5.36000000	        -46.88823309	          4.63505668	        -28.73901057	         -5.62043433	         48.93750370	        -13.05007717	         29.79466110	         79.66897451	         -4.61195416	          0.01004993	          0.07332142	          0.01000473	          0.02260488	          0.06115471	          0.08558266	          0.01000302	          0.01000775	          0.01000260	          0.01002056	          0.06300620	          0.11403360	          0.01000000	          0.09617031	          0.01000059	          0.01000016	          0.01000015	          0.03336673	          0.01000085	          0.01390794	          0.01000000	          0.03243657	          0.01010470	          0.01000111	          0.01000293	          0.01009962	          0.01000243	          0.01000121	          0.03563534	          0.06121609	          0.01000000	          0.04770723	          0.05876890	
